<svg xmlns="http://www.w3.org/2000/svg" viewBox="0 0 120 78">
  <path d="M 22.00,30.00 L 30.00,27.00 L 44.00,26.00 L 58.00,27.00 L 66.00,24.00 L 78.00,14.00 L 86.00,8.00 L 90.00,8.00 L 100.00,12.00 L 103.00,16.00 L 101.00,19.00 L 92.00,20.00 L 88.00,22.00 L 82.00,26.00 L 78.00,32.00 L 80.00,40.00 L 76.00,46.00 L 60.00,48.00 L 44.00,46.00 L 32.00,44.00 L 24.00,38.00 Z" fill="#fff"/>
  <path d="M 83.00,9.00 L 86.00,3.00 L 89.00,8.00 Z" fill="#fff"/>
  <path d="M 64.00,24.00 L 70.00,17.00 L 76.00,11.00 L 82.00,6.00 L 86.00,8.00 L 80.00,13.00 L 73.00,19.00 L 67.00,23.00 Z" fill="#fff"/>
  <path d="M 24.00,30.00 L 16.00,34.00 L 10.00,44.00 L 9.00,56.00 L 13.00,60.00 L 14.00,50.00 L 18.00,40.00 L 25.00,36.00 Z" fill="#fff"/>
  <path d="M 30.00,40.00 L 32.00,55.00 L 36.00,55.00 L 38.00,40.00 Z" fill="#fff"/>
  <path d="M 32.07,55.52 L 36.27,68.89 L 38.98,68.16 L 35.93,54.48 Z" fill="#fff"/>
  <path d="M 35.45,69.11 L 37.05,73.34 L 40.53,72.40 L 39.80,67.94 Z" fill="#fff"/>
  <path d="M 70.24,38.63 L 66.99,53.41 L 70.75,54.78 L 77.76,41.37 Z" fill="#fff"/>
  <path d="M 67.23,52.95 L 59.69,64.76 L 61.99,66.37 L 70.51,55.24 Z" fill="#fff"/>
  <path d="M 59.00,64.27 L 56.78,68.22 L 59.73,70.28 L 62.68,66.85 Z" fill="#fff"/>
  <path d="M 30.06,40.69 L 34.64,55.12 L 38.57,54.42 L 37.94,39.31 Z" fill="#fff"/>
  <path d="M 34.87,55.77 L 42.39,67.60 L 44.82,66.20 L 38.34,53.77 Z" fill="#fff"/>
  <path d="M 41.66,68.02 L 44.30,71.69 L 47.41,69.89 L 45.55,65.77 Z" fill="#fff"/>
  <path d="M 70.02,39.65 L 70.70,54.77 L 74.69,55.12 L 77.98,40.35 Z" fill="#fff"/>
  <path d="M 70.69,54.94 L 71.29,68.94 L 74.09,68.94 L 74.69,54.94 Z" fill="#fff"/>
  <path d="M 70.44,68.94 L 70.89,73.44 L 74.49,73.44 L 74.94,68.94 Z" fill="#fff"/>
</svg>
