<svg xmlns="http://www.w3.org/2000/svg" viewBox="0 0 100 100">
 <path d="M42 10 C42 5.5816 45.5816 2 50 2 C54.4184 2 58 5.5816 58 10 C58 14.4184 54.4184 18 50 18 C45.5816 18 42 14.4184 42 10 Z"/>
 <path d="M49.2 41.4 L19.7 10.4 L14.3 15.6 L43.8 46.6 Z"/>
 <path d="M56.2 46.6 L85.7 15.6 L80.3 10.4 L50.8 41.4 Z"/>
 <path d="M43.3 42.0 L43.3 66.0 L47.5 66.0 L47.5 42.0 Z"/>
 <path d="M52.5 42.0 L52.5 66.0 L56.7 66.0 L56.7 42.0 Z"/>
 <path d="M43.8 62.0 L22.8 96.0 L29.2 100.0 L50.2 66.0 Z"/>
 <path d="M49.8 66.0 L70.8 100.0 L77.2 96.0 L56.2 62.0 Z"/>
</svg>
